PathFileType	4	(X/Y/Z)	OpenSim_Sub07_CSStiffKnee_Accel.trc
DataRate	CameraRate	NumFrames	NumMarkers	Units	OrigDataRate	OrigDataStartFrame	OrigNumFrames
100	100	20	8	m	100	5893	6734
Frame#	Time	torso_imu_offset_imu	pelvis_imu_offset_imu	tibia_r_imu_offset_imu	femur_r_imu_offset_imu	tibia_l_imu_offset_imu	femur_l_imu_offset_imu	toes_r_imu_offset_imu	toes_l_imu_offset_imu
				X1	Y1	Z1	X2	Y2	Z2	X3	Y3	Z3	X4	Y4	Z4	X5	Y5	Z5	X6	Y6	Z6	X7	Y7	Z7	X8		Y8	Z8	

5893	58.92000000	-8.25132016	1.67944246	5.86356479	8.08785670	1.92181919	2.16322169	9.33940116	0.39028751	0.07541168	8.93770369	-0.03287629	0.40696037	10.04459257	2.16433684	-0.21635959	8.05261890	5.17959552	1.00798229	5.77532304	0.02992264	8.12733366	14.01911098	-1.27098772	0.50030452
5894	58.93000000	-8.14427309	1.77104066	5.80505037	8.12362472	1.68712377	1.93285188	9.44202191	0.54027641	0.06045041	8.93978189	-0.30306989	0.32514460	9.79767298	1.43700065	-0.48218854	8.53167495	6.27088760	1.32398607	5.63895200	0.20401145	8.24675374	13.78435610	0.25807065	0.62998745
5895	58.94000000	-8.17736524	1.83743012	5.74165836	8.22015474	1.57536975	1.49531594	9.51111368	0.87111209	0.23240319	9.01620128	-0.59680587	0.32517845	9.19704275	0.25478484	-0.38024936	8.88103489	5.24840542	0.69094871	5.70589635	0.18750769	8.28346249	12.65519949	1.35603533	1.92620360
5896	58.95000000	-8.22396259	1.94970138	5.71896731	8.35142599	1.29229343	1.38160685	9.54710942	1.34623028	0.35709211	9.07855110	-0.93366649	0.29856055	8.73173001	-0.82864894	0.22747517	8.29634031	4.42937077	0.26536875	5.78417997	0.28901945	8.29074353	8.93573553	6.01813112	0.93031245
5897	58.96000000	-8.52795865	2.04828968	5.83226521	8.68261297	1.44837312	1.63820161	9.78171619	1.57389932	0.41186554	9.20905141	-1.26960816	0.29382249	9.32192436	-0.79042213	0.64054108	6.04615852	7.32890275	2.11542692	5.94335481	0.52772317	8.29570301	7.54393352	9.20329447	-5.25463535
5898	58.97000000	-8.97866661	2.09545824	6.09456298	9.10355369	1.47880931	1.45014292	10.16209118	1.34835119	0.47120217	9.47250922	-1.52782015	0.46014163	10.29350015	0.72214637	1.04892623	7.08699456	4.67348067	-0.72568001	5.73878207	0.50798966	8.45875797	10.88798264	-4.60670357	-5.34513710
5899	58.98000000	-9.25156938	2.08937019	6.18874523	9.36013400	1.66333584	1.55990334	10.41522860	1.32654407	1.02007739	9.57439126	-1.68521988	0.66598867	10.58527345	0.90799155	2.45039293	7.12704673	4.44323410	-0.69913661	5.59410019	0.34337718	8.67422802	12.15880103	-3.67196055	7.67820409
5900	58.99000000	-9.55136134	1.92222409	6.39082622	9.78047004	1.71940825	2.08729863	10.66435455	1.51074623	1.18164478	9.64144710	-1.82016155	0.71919758	10.78927465	-0.48874138	2.61196013	8.11931131	4.24915564	-0.24835191	5.60203724	0.42896478	8.81925982	13.16485240	4.27562848	21.03276978
5901	59.00000000	-10.03332573	1.84857257	6.71375476	10.56667450	1.57237917	2.85039694	11.12160796	1.04737029	1.32766948	9.83028076	-1.87571233	0.63137521	9.98663225	0.15624253	1.72143098	10.23617966	3.24484617	0.49396833	5.76220120	0.46840901	8.91089379	0.62770666	-9.52986295	13.22086206
5902	59.01000000	-10.66587170	1.69024267	7.09558891	11.32028826	1.23863190	3.51177272	11.61970739	0.43209251	1.61567576	10.03476591	-1.99283784	0.54276578	10.79880129	2.92190756	2.53927341	12.83372900	3.02570002	0.07036901	5.54700011	0.28808483	9.32729700	8.18596129	-15.15484365	10.03389516
5903	59.02000000	-11.05743855	1.46963759	7.33385136	11.88411661	0.57766588	4.47766043	12.30388570	0.44118227	2.37707514	10.18218195	-2.17091671	0.36736133	13.98828692	4.21011187	5.31126909	14.90486913	3.09492971	-0.31471378	5.19213170	0.05079034	9.92199222	27.05412084	0.58096678	22.23059573
5904	59.03000000	-11.46845865	1.27757526	7.70453945	12.80778557	-0.10123938	5.43407831	13.06387392	0.26570463	2.48665683	10.24457904	-2.25461951	0.14907110	18.03059666	3.63272340	7.47688626	16.97013688	2.90125737	0.82563233	4.80298612	-0.50682802	10.45983103	27.37068273	8.07187929	24.00284695
5905	59.04000000	-12.03588613	1.06587550	7.95424955	13.28031227	-0.66058222	5.60376039	14.22731186	-0.91754911	2.38564531	10.37844939	-2.33018015	0.07574472	17.61926246	1.24007216	6.52274657	17.30619292	4.87557433	1.43054964	4.57378400	-0.56305033	10.87458770	8.64267569	-1.06303267	11.48143512
5906	59.05000000	-11.90894802	0.86122792	7.65405262	12.29769441	-0.82472014	5.09051206	15.47392387	-1.76335517	3.02032389	10.73112271	-2.35451656	0.23473521	13.22188751	-1.85995452	3.53511094	12.85942258	7.78893841	0.59072345	4.70756461	-0.60988176	11.26271989	2.87465884	-0.16586393	9.23354606
5907	59.06000000	-11.00190727	0.55912253	6.96324158	10.66622933	0.21632378	4.61926697	15.56060766	-1.07156820	3.34998716	10.86453972	-2.17404582	0.25573096	8.44812492	-5.14965526	0.50346642	8.92907569	6.33530140	-0.73626622	5.86775221	-0.61315543	11.71321694	11.10017028	0.18727256	14.23361169
5908	59.07000000	-10.13552526	0.39217088	6.31989306	9.95070675	1.60530279	4.35932069	15.62948536	-0.40709415	2.82652062	10.59465027	-1.97167893	0.27167999	6.36073207	-8.20280582	-2.12131425	8.63849969	0.17657296	-1.42240090	7.38727096	-1.29450590	11.40220386	4.89369049	-0.86146157	8.42545833
5909	59.08000000	-9.72456030	0.40150726	5.93674360	9.70007816	2.04436093	4.21024759	15.42314348	-1.77584305	1.09753082	9.96281043	-1.60197975	0.63289709	6.15354888	-9.88297659	-3.42566611	8.79875131	-4.43078443	-2.04281308	7.45049104	-1.97996367	10.71342957	5.79448488	4.24799284	12.48755137
5910	59.09000000	-9.50543592	0.49917896	5.81406894	9.23196332	2.02632547	4.19711044	14.42052673	-3.40314425	-0.78980118	9.24511546	-1.03422986	0.89877560	6.17546825	-10.60130795	-3.27275184	8.18689477	-6.30160823	-3.57460066	8.35175622	0.29420789	9.37721678	5.93435555	2.08196633	10.49936298
5911	59.10000000	-9.48679248	0.50099396	5.90989964	9.08918366	1.95246769	4.24100808	13.22317028	-2.30227998	-1.24735244	8.99604433	-0.47602751	1.65082887	8.19461797	-9.61124374	-1.27808882	8.46685383	-6.21889984	-5.31757039	10.23988966	-1.51891721	9.97735112	5.40110406	2.52591481	10.89728116
5912	59.11000000	-9.48752936	0.28645667	6.12180685	9.44986158	1.79138623	4.32133581	12.41351548	0.30879677	-1.82613027	9.13700037	0.20278373	2.42489390	10.96692822	-6.60494218	0.99098117	8.97742177	-4.17668816	-6.09435805	10.61476771	-4.28939866	11.55144996	5.93461174	1.65443637	10.73504308
